<?xml version="1.0" encoding="UTF-8"?>
<svg xmlns="http://www.w3.org/2000/svg" version="1.1" viewBox="0 0 885.25 408.05">
  <defs>
    <style>
      .cls-1 {
        fill: #c7b47f;
        fill-rule: evenodd;
      }

      .cls-2 {
        opacity: 0;
      }

      .cls-2, .cls-3 {
        fill: #969aa0;
      }
    </style>
  </defs>
  <!-- Generator: Adobe Illustrator 28.7.3, SVG Export Plug-In . SVG Version: 1.2.0 Build 164)  -->
  <g>
    <g id="Layer_1">
      <g>
        <g>
          <path class="cls-1" d="M144.23,179h-61.63l-8.85,29.76H18.23L84.49,28.17h59.53l65.97,180.59h-56.95l-8.81-29.76h0ZM132.71,139.91l-19.22-64.91-19.3,64.91h38.51ZM234.86,28.17h71.75l27.33,109.89,27.41-109.89h71.42v180.59h-44.5V71.09l-34.34,137.67h-40.32l-34.25-137.67v137.67h-44.5V28.17h0ZM592.86,134.86l47.69,14.76c-3.19,13.7-8.24,25.18-15.16,34.34-6.88,9.21-15.4,16.14-25.65,20.81-10.2,4.67-23.19,7.02-38.97,7.02-19.18,0-34.79-2.86-46.96-8.53-12.13-5.72-22.58-15.76-31.39-30.1-8.81-14.34-13.23-32.75-13.23-55.11,0-29.84,7.74-52.8,23.23-68.86,15.53-16.02,37.45-24.05,65.8-24.05,22.17,0,39.62,4.58,52.32,13.79,12.66,9.21,22.13,23.33,28.27,42.41l-47.94,10.89c-1.68-5.46-3.44-9.46-5.29-11.98-3.07-4.25-6.8-7.52-11.19-9.79-4.43-2.31-9.34-3.45-14.79-3.45-12.37,0-21.84,5.09-28.4,15.22-4.96,7.53-7.46,19.38-7.46,35.48,0,20.01,2.95,33.67,8.89,41.11,5.94,7.4,14.26,11.1,24.99,11.1s18.28-2.99,23.6-9c5.33-5.97,9.18-14.67,11.59-26.06h0ZM783.31,179h-61.62l-8.85,29.76h-55.52l66.25-180.59h59.53l65.97,180.59h-56.96l-8.81-29.76h0ZM771.8,139.91l-19.22-64.91-19.3,64.91h38.52Z"/>
          <rect class="cls-3" x="18.21" y="222.73" width="832.13" height="3.06"/>
          <rect class="cls-3" x="18.21" y="301.15" width="832.13" height="3.06"/>
          <g>
            <path class="cls-3" d="M21.51,292.53v-57.97h25.74c6.36,0,11.21,1.54,14.55,4.6,3.34,3.07,5.02,7.29,5.02,12.66s-1.67,9.54-5.02,12.66c-3.34,3.12-8.2,4.69-14.55,4.69h-15.13v23.35h-10.61ZM32.12,260.79h13.9c3.51,0,6.14-.78,7.89-2.34,1.75-1.56,2.63-3.77,2.63-6.62s-.88-5.06-2.63-6.62c-1.76-1.56-4.39-2.34-7.89-2.34h-13.9v17.92Z"/>
            <path class="cls-3" d="M112.86,292.53v-57.97h25.32c6.36,0,11.28,1.51,14.76,4.52,3.48,3.02,5.22,7.21,5.22,12.58,0,3.56-.78,6.61-2.34,9.13-1.56,2.52-3.8,4.45-6.7,5.8-2.91,1.34-6.33,2.01-10.28,2.01l1.15-1.56h2.8c2.3,0,4.36.6,6.17,1.81,1.81,1.21,3.29,3.04,4.44,5.51l8.47,18.17h-11.68l-8.55-18.83c-.77-1.92-1.93-3.18-3.49-3.78-1.56-.6-3.44-.9-5.63-.9h-9.04v23.52h-10.61ZM123.46,261.2h12.99c3.73,0,6.56-.78,8.51-2.34,1.94-1.56,2.92-3.85,2.92-6.87s-.97-5.29-2.92-6.82c-1.95-1.53-4.78-2.3-8.51-2.3h-12.99v18.34Z"/>
            <path class="cls-3" d="M204.87,263.51c0-6.08,1.11-11.35,3.33-15.79,2.22-4.44,5.41-7.88,9.58-10.32,4.16-2.44,9.13-3.66,14.88-3.66s10.63,1.22,14.8,3.66c4.17,2.44,7.39,5.88,9.66,10.32,2.27,4.44,3.41,9.68,3.41,15.7s-1.14,11.36-3.41,15.83c-2.28,4.47-5.5,7.93-9.66,10.4-4.17,2.47-9.1,3.7-14.8,3.7s-10.7-1.23-14.84-3.7c-4.14-2.47-7.33-5.93-9.58-10.4-2.25-4.47-3.37-9.71-3.37-15.75ZM215.96,263.51c0,6.52,1.4,11.62,4.19,15.29,2.8,3.67,6.96,5.51,12.5,5.51s9.51-1.84,12.42-5.51c2.91-3.67,4.36-8.77,4.36-15.29s-1.44-11.68-4.32-15.29c-2.88-3.62-7.03-5.43-12.46-5.43s-9.7,1.81-12.5,5.43c-2.8,3.62-4.19,8.72-4.19,15.29Z"/>
            <path class="cls-3" d="M308.05,292.53v-57.97h25.74c6.36,0,11.21,1.54,14.55,4.6,3.34,3.07,5.02,7.29,5.02,12.66s-1.67,9.54-5.02,12.66c-3.34,3.12-8.2,4.69-14.55,4.69h-15.13v23.35h-10.61ZM318.66,260.79h13.9c3.51,0,6.14-.78,7.89-2.34,1.75-1.56,2.63-3.77,2.63-6.62s-.88-5.06-2.63-6.62c-1.76-1.56-4.39-2.34-7.89-2.34h-13.9v17.92Z"/>
            <path class="cls-3" d="M399.4,292.53v-57.97h39.06v8.3h-28.86v16.03h26.97v8.39h-26.97v16.86h28.86v8.39h-39.06Z"/>
            <path class="cls-3" d="M484.91,292.53v-57.97h25.32c6.36,0,11.28,1.51,14.76,4.52,3.48,3.02,5.22,7.21,5.22,12.58,0,3.56-.78,6.61-2.34,9.13-1.56,2.52-3.8,4.45-6.7,5.8-2.91,1.34-6.33,2.01-10.28,2.01l1.15-1.56h2.8c2.3,0,4.36.6,6.17,1.81,1.81,1.21,3.29,3.04,4.44,5.51l8.47,18.17h-11.68l-8.55-18.83c-.77-1.92-1.93-3.18-3.49-3.78-1.56-.6-3.44-.9-5.63-.9h-9.04v23.52h-10.61ZM495.52,261.2h12.99c3.73,0,6.56-.78,8.51-2.34,1.94-1.56,2.92-3.85,2.92-6.87s-.97-5.29-2.92-6.82c-1.95-1.53-4.78-2.3-8.51-2.3h-12.99v18.34Z"/>
            <path class="cls-2" d="M591.22,292.53v-49.25h-19.16v-8.72h48.92v8.72h-19.16v49.25h-10.61Z"/>
            <path class="cls-3" d="M665.06,292.53v-57.97h10.61v57.97h-10.61Z"/>
            <path class="cls-3" d="M725,292.53v-57.97h39.06v8.3h-28.86v16.03h26.97v8.39h-26.97v16.86h28.86v8.39h-39.06Z"/>
            <path class="cls-3" d="M829.91,293.35c-4.66,0-8.95-.59-12.87-1.77-3.92-1.18-7.28-2.81-10.07-4.89l3.29-8.3c1.86,1.32,3.81,2.43,5.84,3.33,2.03.9,4.19,1.59,6.5,2.06,2.3.47,4.74.7,7.32.7,4.33,0,7.45-.71,9.37-2.14,1.92-1.42,2.88-3.29,2.88-5.59,0-2.03-.66-3.58-1.97-4.65-1.32-1.07-3.67-1.96-7.07-2.67l-9.29-1.89c-5.32-1.1-9.29-2.93-11.92-5.51-2.63-2.58-3.95-6.03-3.95-10.36,0-3.62.96-6.77,2.88-9.46,1.92-2.69,4.6-4.77,8.06-6.25,3.45-1.48,7.48-2.22,12.09-2.22,4.11,0,7.92.59,11.43,1.77,3.51,1.18,6.44,2.87,8.8,5.06l-3.29,7.89c-2.36-1.97-4.93-3.44-7.73-4.4-2.8-.96-5.92-1.44-9.37-1.44-3.89,0-6.92.75-9.09,2.26-2.17,1.51-3.25,3.58-3.25,6.21,0,2.03.67,3.65,2.01,4.85,1.34,1.21,3.63,2.14,6.87,2.8l9.21,1.81c5.48,1.1,9.54,2.89,12.17,5.39,2.63,2.49,3.95,5.85,3.95,10.07,0,3.45-.93,6.48-2.8,9.09-1.86,2.6-4.49,4.63-7.89,6.08-3.4,1.45-7.43,2.18-12.09,2.18Z"/>
          </g>
          <g>
            <path class="cls-3" d="M600.59,234.14c-.54-.47-1.37-.47-1.91,0l-32.41,28.28c-.46.4-.61,1.04-.4,1.61.22.56.76.94,1.37.94h6.29v26.09c0,.8.65,1.44,1.46,1.44h16.81c1.14,0,2.42-.08,3.81-.2.82-.09,1.64-.14,2.44-.16.54-.03,1.08-.04,1.61-.04,1.23,0,2.47.06,3.73.2,1.25.13,2.57.2,3.95.2.24,0,.42-.09.53-.25.11-.16.18-.35.18-.56s-.06-.4-.18-.58c-.11-.19-.28-.29-.48-.33-1.1-.1-1.99-.23-2.64-.39-.66-.15-1.16-.4-1.52-.75-.37-.35-.59-.84-.7-1.48-.1-.63-.15-1.52-.15-2.64v-22.94c0-1.25.34-2.05,1.04-2.38.68-.33,1.8-.49,3.34-.49,1.15,0,2.13.1,2.95.28.82.19,1.52.53,2.1,1.04.57.51,1.02,1.19,1.37,2.06.34.87.62,2,.82,3.38.03.2.14.34.33.42.18.08.38.1.58.08.22-.03.4-.1.57-.21.16-.13.25-.25.25-.38-.06-.7-.13-1.42-.18-2.16-.05-.76-.08-1.51-.08-2.23s.03-1.38.08-1.99c.05-.61.11-1.1.18-1.51,0-.39-.22-.65-.65-.76-.43-.11-.96-.18-1.62-.18h-27.57c-.59,0-1.13.06-1.61.2-.48.14-.72.39-.72.78.18,1.29.25,2.59.23,3.92-.01,1.33-.09,2.63-.23,3.91,0,.13.08.25.23.35.15.1.32.15.51.18.19.01.38-.01.57-.08.19-.08.3-.2.34-.4.27-1.38.57-2.49.89-3.35.33-.86.76-1.53,1.3-2.04.53-.51,1.21-.85,2.04-1.04.82-.18,1.87-.28,3.15-.28,1.51,0,2.58.16,3.23.49.63.33.95,1.13.95,2.38v22.94c0,1.13-.06,2.01-.19,2.64-.13.62-.35,1.1-.7,1.44h-19.45v-26.09c0-.8-.65-1.44-1.44-1.44h-3.87l28.53-24.9,28.54,24.9h-3.87v2.9h7.74c.61,0,1.15-.38,1.35-.94.21-.57.05-1.2-.4-1.61l-32.4-28.28Z"/>
            <g>
              <path class="cls-3" d="M607.32,293.21c-1.31,0-2.67-.07-4.02-.21-1.22-.13-2.41-.2-3.66-.2-.52,0-1.03.01-1.57.04-.85.03-1.65.08-2.4.16-1.53.14-2.8.21-3.89.21h-16.81c-1.2,0-2.18-.97-2.18-2.16v-25.37h-5.57c-.9,0-1.72-.56-2.04-1.4v-.02c-.31-.85-.07-1.79.6-2.39l32.42-28.28c.82-.7,2.04-.7,2.85,0h0s32.4,28.28,32.4,28.28c.69.61.93,1.56.61,2.4-.3.84-1.12,1.4-2.03,1.4h-8.46v-4.34h2.67l-26.62-23.22-26.61,23.22h1.95c1.19,0,2.16.97,2.16,2.16v25.37h18.39c.15-.22.26-.51.33-.87.12-.58.18-1.42.18-2.5v-22.94c0-.54-.07-1.49-.56-1.74-.37-.19-1.17-.41-2.89-.41-1.18,0-2.19.09-3,.26-.69.16-1.26.45-1.69.85-.47.44-.84,1.02-1.13,1.77-.32.86-.61,1.95-.85,3.23-.08.43-.36.77-.78.94h-.04c-.28.11-.56.14-.85.13h-.05c-.31-.05-.58-.14-.81-.3-.35-.23-.55-.58-.55-.95v-.08c.14-1.25.22-2.54.23-3.84.02-1.29-.05-2.57-.22-3.82v-.1c0-.42.15-1.16,1.23-1.48.54-.16,1.13-.23,1.81-.23h27.57c.7,0,1.29.07,1.8.2.75.2,1.18.73,1.18,1.46v.11c-.08.46-.14.94-.18,1.45-.05.59-.07,1.22-.07,1.93s.02,1.44.07,2.18c.05.77.12,1.51.18,2.15v.07c0,.25-.09.61-.53.95l-.03.02c-.27.19-.57.3-.9.34-.33.04-.66,0-.95-.13-.42-.17-.7-.53-.76-.99-.19-1.29-.45-2.37-.78-3.21-.3-.76-.69-1.36-1.17-1.79-.49-.42-1.07-.71-1.78-.87-.8-.17-1.74-.26-2.79-.26-1.78,0-2.63.23-3.03.42-.42.2-.63.78-.63,1.73v22.94c0,1.09.05,1.94.14,2.53.08.49.23.83.48,1.08.26.25.66.44,1.18.56.61.15,1.44.27,2.55.38h.07c.41.09.75.31.96.67.19.29.29.63.29.96s-.11.68-.31.97c-.25.36-.65.56-1.12.56ZM566.53,263.78c.11.28.39.47.69.47h7.01v26.81c0,.4.32.72.73.72h16.81c1.04,0,2.27-.07,3.74-.2.77-.08,1.61-.14,2.48-.17.55-.03,1.09-.04,1.63-.04,1.28,0,2.56.07,3.81.21,1.29.13,2.58.2,3.84.2.01-.03.02-.06.02-.09,0-.06-.02-.13-.06-.19h0c-1.15-.11-2.03-.25-2.69-.41-.77-.18-1.39-.49-1.84-.93-.49-.47-.78-1.09-.91-1.89-.11-.67-.16-1.59-.16-2.76v-22.94c0-1.56.49-2.58,1.45-3.03.78-.38,1.98-.56,3.65-.56,1.15,0,2.19.1,3.1.29.95.22,1.76.62,2.42,1.2.66.59,1.19,1.37,1.56,2.34.36.91.64,2.06.85,3.42.04,0,.08,0,.13,0,.06,0,.12-.02.17-.05-.05-.59-.11-1.25-.16-1.95-.05-.77-.08-1.54-.08-2.28s.03-1.41.08-2.05c.04-.52.1-1,.17-1.47-.02,0-.05-.02-.1-.04-.38-.1-.87-.15-1.43-.15h-27.57c-.54,0-1,.06-1.41.17-.11.03-.17.06-.2.08.17,1.29.25,2.62.22,3.95-.01,1.24-.08,2.49-.2,3.7.02,0,.04,0,.06.01.05,0,.1,0,.15-.01.26-1.31.56-2.43.9-3.35.37-.97.86-1.73,1.49-2.32.61-.58,1.41-.99,2.37-1.21.92-.2,2.03-.3,3.31-.3,1.64,0,2.8.19,3.55.57.89.46,1.34,1.48,1.34,3.02v22.94c0,1.17-.07,2.11-.2,2.79-.16.77-.46,1.37-.89,1.81l-.21.21h-20.47v-26.81c0-.4-.32-.72-.72-.72h-5.79l30.45-26.58,30.47,26.58h-5.07v1.46h7.02c.3,0,.58-.19.68-.46.11-.29.03-.61-.21-.82l-32.39-28.27c-.27-.23-.7-.23-.97,0l-32.41,28.27c-.22.2-.3.52-.2.81ZM614.69,266.35s0,0,0,0c0,0,0,0,0,0ZM584.48,266.27s0,0,0,0c0,0,0,0,0,0ZM614.57,266.2s0,0,0,0c0,0,0,0,0,0ZM615.05,266.13h0ZM614.98,258.43"/>
              <path class="cls-3" d="M607.32,293.47c-1.33,0-2.69-.07-4.05-.21-1.71-.19-3.38-.24-5.2-.16-.85.03-1.65.08-2.38.16-1.54.14-2.82.21-3.91.21h-16.81c-1.34,0-2.43-1.08-2.43-2.42v-25.11h-5.31c-1,0-1.91-.63-2.27-1.56-.35-.98-.08-2.02.67-2.69l32.42-28.28c.91-.78,2.28-.78,3.18,0l32.41,28.28c.77.68,1.03,1.74.68,2.69-.34.94-1.25,1.57-2.26,1.57h-8.72v-4.85h2.25l-25.94-22.63-25.93,22.63h1.27c1.33,0,2.42,1.08,2.42,2.42v25.12h17.99c.1-.18.17-.4.22-.66.11-.56.17-1.39.17-2.45v-22.94c0-.81-.16-1.38-.42-1.51-.28-.14-1.01-.38-2.78-.38-1.16,0-2.15.09-2.95.26-.65.15-1.18.42-1.57.79-.44.41-.79.96-1.06,1.68-.31.85-.6,1.93-.84,3.19-.1.52-.43.92-.94,1.12-.36.12-.68.17-1,.14h-.06c-.35-.05-.65-.16-.92-.34-.42-.28-.66-.7-.66-1.16v-.09c.14-1.25.22-2.53.23-3.83.02-1.28-.05-2.55-.22-3.78v-.12c0-.41.13-1.37,1.42-1.74.56-.16,1.17-.24,1.88-.24h27.57c.72,0,1.33.07,1.87.21.86.23,1.37.86,1.37,1.7v.13c-.08.47-.14.94-.18,1.46-.05.59-.07,1.21-.07,1.91s.03,1.43.07,2.16c.05.77.12,1.51.18,2.14v.08c0,.31-.11.76-.63,1.16-.34.24-.68.37-1.05.41-.37.05-.74,0-1.08-.15-.5-.2-.84-.65-.91-1.19-.19-1.27-.44-2.33-.76-3.14-.28-.72-.65-1.29-1.11-1.69-.45-.39-1-.66-1.67-.82-.78-.17-1.7-.25-2.73-.25-1.73,0-2.54.22-2.92.4-.32.15-.49.67-.49,1.5v22.94c0,1.07.05,1.91.14,2.49.07.43.2.73.41.93.23.22.59.39,1.06.5.6.15,1.42.27,2.52.37h.08c.5.1.89.37,1.14.79.21.33.32.71.32,1.09s-.12.78-.35,1.11c-.3.43-.77.67-1.33.67ZM599.64,292.56c1.26,0,2.46.07,3.69.2,1.34.14,2.68.2,3.99.2.39,0,.71-.16.92-.46.17-.25.26-.53.26-.82s-.08-.57-.25-.83c-.18-.29-.45-.48-.79-.54h-.05c-1.11-.11-1.96-.23-2.58-.39-.56-.13-1-.34-1.29-.63-.3-.29-.47-.67-.56-1.22-.1-.6-.15-1.47-.15-2.57v-22.94c0-1.07.25-1.71.77-1.96.61-.29,1.69-.45,3.14-.45,1.06,0,2.02.09,2.84.27.76.17,1.38.48,1.9.93.52.46.93,1.09,1.24,1.88.28.73.52,1.64.7,2.7h.95c-.2-1.2-.46-2.22-.78-3.04-.36-.93-.87-1.69-1.5-2.25-.63-.55-1.41-.93-2.31-1.14-.89-.19-1.91-.29-3.04-.29-1.63,0-2.79.18-3.54.54-.87.41-1.31,1.35-1.31,2.8v22.94c0,1.15.05,2.06.16,2.72.12.75.39,1.32.83,1.75.42.41,1,.7,1.72.86.65.16,1.52.29,2.66.4h.13s.07.12.07.12c.07.11.1.22.1.33,0,.06-.01.13-.04.18l-.06.16h-.17c-1.26,0-2.56-.07-3.86-.2-1.77-.19-3.57-.25-5.4-.17-.87.03-1.7.08-2.47.17-1.49.14-2.72.2-3.77.2h-16.81c-.55,0-.99-.43-.99-.97v-26.56h-6.76c-.4,0-.78-.25-.92-.62h0c-.13-.4-.03-.83.27-1.1l32.41-28.28c.36-.31.93-.32,1.3,0l32.4,28.27c.32.28.42.71.28,1.1-.13.37-.51.63-.91.63h-7.27v-1.96h4.65l-29.79-25.99-29.78,25.99h5.12c.54,0,.97.44.97.97v26.56h20.11l.14-.14c.4-.4.68-.97.82-1.68.13-.66.2-1.58.2-2.74v-22.94c0-1.44-.41-2.38-1.21-2.8-.72-.37-1.84-.54-3.44-.54-1.27,0-2.36.1-3.26.29-.91.21-1.66.6-2.25,1.15-.6.56-1.07,1.29-1.43,2.22-.33.9-.63,2.02-.88,3.31l-.03.17-.11.02.06.06-.06-.06h-.06c-.07.02-.13.02-.21.03l-.11-.02-.22-.05.02-.22c.12-1.2.19-2.44.2-3.67.03-1.31-.05-2.63-.22-3.91l-.02-.15.13-.09c.06-.04.15-.08.27-.12.43-.12.91-.18,1.48-.18h27.57c.59,0,1.09.05,1.5.16.07.02.12.04.16.06l.15.09-.03.17c-.07.47-.13.94-.17,1.45-.05.63-.08,1.29-.08,2.03s.03,1.49.08,2.26c.05.69.1,1.35.16,1.94l.02.18-.16.08c-.08.04-.16.06-.25.07-.07,0-.13,0-.19,0l-.15-.02h-.01s-.02-.03-.02-.03l-1.01-.38c.03.15.05.31.07.47.05.37.27.66.6.79.26.11.54.15.82.11.29-.03.55-.13.78-.3.38-.29.45-.57.45-.76v-.05c-.06-.62-.13-1.37-.18-2.14-.05-.74-.08-1.48-.08-2.2s.02-1.34.07-1.95c.04-.52.1-1.01.17-1.47v-.09c0-.59-.35-1.02-.99-1.19-.49-.13-1.06-.19-1.74-.19h-27.57c-.65,0-1.22.07-1.74.22-.88.25-1.06.81-1.06,1.23v.08c.18,1.24.25,2.54.23,3.84-.01,1.31-.09,2.61-.22,3.86v.07c0,.27.16.54.43.73.2.13.43.22.7.25.28.02.53-.01.78-.1.36-.15.59-.41.65-.76.25-1.29.54-2.39.86-3.27.3-.8.69-1.41,1.19-1.87.46-.44,1.07-.74,1.81-.92.83-.18,1.86-.27,3.06-.27,1.77,0,2.62.24,3.01.44.58.3.7,1.23.7,1.96v22.94c0,1.09-.06,1.95-.18,2.55-.08.39-.2.71-.37.96l-.07.11h-18.77v-25.62c0-1.05-.86-1.91-1.91-1.91h-2.62l27.28-23.81.17.15,27.13,23.66h-3.09v3.83h8.21c.8,0,1.52-.5,1.79-1.24.28-.75.07-1.59-.54-2.13l-32.4-28.28c-.72-.62-1.81-.62-2.53,0l-32.42,28.28c-.59.53-.8,1.36-.53,2.11.29.75,1.01,1.25,1.81,1.25h5.82v25.62c0,1.05.86,1.91,1.92,1.91h16.81c1.08,0,2.34-.07,3.86-.2.74-.08,1.56-.14,2.41-.16.54-.03,1.06-.04,1.58-.04ZM566.77,263.69c.08.18.26.3.45.3h7.26v27.06c0,.27.21.47.48.47h16.81c1.04,0,2.25-.07,3.72-.2.77-.08,1.62-.14,2.5-.17,1.85-.09,3.68-.03,5.48.17.53.05,1.06.1,1.58.13-.21-.04-.4-.08-.57-.13-.81-.19-1.47-.52-1.96-.99-.53-.51-.85-1.17-.98-2.03-.11-.68-.16-1.62-.16-2.8v-22.94c0-1.66.54-2.76,1.6-3.26.82-.39,2.05-.59,3.76-.59,1.17,0,2.23.1,3.15.3.99.23,1.84.65,2.53,1.25.69.61,1.24,1.44,1.63,2.44.19.48.36,1.03.51,1.64,0-.04,0-.07,0-.11-.05-.78-.08-1.55-.08-2.29s.03-1.43.08-2.07c.04-.44.08-.86.14-1.27-.37-.08-.78-.12-1.26-.12h-27.57c-.51,0-.95.05-1.33.16.16,1.25.22,2.52.2,3.79,0,.58-.02,1.16-.05,1.74.15-.54.3-1.04.47-1.49.39-1.01.89-1.8,1.55-2.41.65-.61,1.48-1.04,2.48-1.27.93-.2,2.07-.3,3.37-.3,1.68,0,2.88.2,3.67.6.98.51,1.48,1.6,1.48,3.25v22.94c0,1.19-.07,2.14-.21,2.84-.17.82-.49,1.47-.96,1.94l-.29.28h-20.82v-27.06c0-.26-.21-.47-.47-.47h-6.47l31.13-27.17.17.15,30.98,27.02h-5.5v.95h6.77c.19,0,.38-.12.44-.3.07-.2.02-.41-.14-.55l-32.39-28.27c-.18-.15-.46-.15-.64,0l-32.41,28.27c-.14.13-.2.34-.13.53ZM614.43,266.35l-.04.04.04-.04Z"/>
            </g>
          </g>
        </g>
        <g>
          <path class="cls-3" d="M138.02,375.42c-1.81,0-3-1.07-3.56-3.21-.14-.51-.21-1.6-.21-3.28,0-4.09.76-9.36,2.27-15.81,1.51-6.44,4.27-13.83,8.27-22.16-1.81-.14-3.51-.21-5.09-.21-6.65,0-11.35.91-14.1,2.72-1.4.93-2.45,1.84-3.18,2.72-.72.88-1.34,1.93-1.85,3.14-.28.65-1.02.98-2.23.98s-1.81-.53-1.81-1.61c0-.23.02-.42.07-.56,1.3-5.26,3.91-8.87,7.82-10.85,3.91-1.98,9.23-2.97,15.98-2.97,2.79,0,7.56.21,14.31.63,6.75.42,12,.63,15.77.63,1.72,0,2.63.61,2.72,1.81,0,1.81-.93,2.98-2.79,3.49-1.63.47-4.54.7-8.72.7s-8.21-.12-12.07-.35c-5.12,14.38-7.68,26.8-7.68,37.26v1.54c0,3.58-1.3,5.37-3.91,5.37Z"/>
          <path class="cls-3" d="M174.38,348.63c-1.63,4.88-2.68,9.51-3.14,13.89l-.07.84c0,1.07.32,1.61.98,1.61,1.49-.09,3.42-1.44,5.79-4.05.6-.46,1.1-.7,1.5-.7s.87.27,1.43.8c.56.54.84,1.04.84,1.5,0,1.07-1.43,2.52-4.29,4.36-2.86,1.84-5.15,2.76-6.87,2.76-2.75,0-4.14-1.37-4.19-4.12l.21-2.16c-.51,1.44-1.49,2.86-2.93,4.26-1.44,1.4-3.16,2.09-5.16,2.09s-3.5-.67-4.5-2.02c-1-1.35-1.5-3.09-1.5-5.23,0-2.79.48-5.7,1.43-8.72.95-3.02,1.71-5.01,2.27-5.97.56-.95,1.29-1.43,2.2-1.43s1.59.17,2.06.52c.46.35.7.68.7.98s-.56,2.01-1.67,5.13c-1.12,3.12-1.77,5.86-1.95,8.23v.49c0,2.28.79,3.42,2.37,3.42,1.26,0,2.55-.73,3.87-2.2,1.33-1.47,2.36-3.48,3.11-6.04l1.88-6.98c.46-1.54.92-2.51,1.36-2.93.44-.42,1.02-.63,1.74-.63s1.34.21,1.85.63c.51.42.77.88.77,1.4l-.07.28Z"/>
          <path class="cls-3" d="M183.24,360.56c.84-2.65,2.41-5.68,4.71-9.07,2.3-3.4,4.18-5.09,5.62-5.09,2.05,0,3.07.79,3.07,2.37,0,1.02-.24,2.2-.73,3.52-.49,1.33-.73,2.13-.73,2.41,0,.7.5,1.05,1.5,1.05s2.64-.67,4.92-2.02c.09-.05.28-.07.56-.07s.64.26,1.08.77c.44.51.66.97.66,1.36s-.09.69-.28.87c-2.79,2.51-5.51,3.77-8.16,3.77-3.16,0-4.75-1.35-4.75-4.05,0-.09.37-1.6,1.12-4.54-.05,0-.42.56-1.12,1.67-2.19,3.63-4.33,8.3-6.42,14.03-.61,1.21-1.6,1.81-3,1.81-1.91,0-2.86-1.54-2.86-4.61v-.56c0-5.02.72-9.93,2.16-14.72.7-2.09,1.81-3.14,3.35-3.14.6,0,1.09.19,1.47.56.37.37.56.84.56,1.4l-2.72,12.28Z"/>
          <path class="cls-3" d="M220.36,364.68c1.77-.37,3.91-1.74,6.42-4.12.19-.19.45-.28.8-.28s.72.31,1.12.94c.39.63.59,1.12.59,1.47s-.05.62-.14.8c-1.49,1.91-3.35,3.37-5.58,4.4-2.23,1.02-4.09,1.54-5.58,1.54-2.7,0-4.05-1.47-4.05-4.4,0-1.54.46-3.74,1.4-6.63.93-2.88,1.4-4.43,1.4-4.64s-.05-.31-.14-.31h-.07c-.79.33-2.45,2.18-4.99,5.55-2.54,3.37-4.08,5.76-4.64,7.15-.56,1.4-1.04,2.29-1.43,2.69-.4.4-1.04.59-1.92.59-1.72-.05-2.58-1.81-2.58-5.3.09-4.93,1.12-10.02,3.07-15.28.6-1.67,1.63-2.51,3.07-2.51.56,0,1.02.19,1.4.56.37.37.56.76.56,1.15s-.02.66-.07.8c-1.07,3.07-1.93,6.51-2.58,10.33,2.42-4.19,4.79-7.39,7.12-9.6,2.33-2.21,4.4-3.31,6.21-3.31.93,0,1.74.29,2.44.87.7.58,1.05,1.2,1.05,1.85,0,1.02-.59,3.34-1.78,6.94-1.19,3.61-1.83,5.73-1.92,6.38-.09.65-.14,1.22-.14,1.71s.15.72.45.7c.3-.02.48-.03.52-.03Z"/>
          <path class="cls-3" d="M227.69,362.65c0-2.05.37-4.45,1.12-7.22.74-2.77,1.49-4.83,2.23-6.18.74-1.35,1.38-2.15,1.92-2.41.53-.26,1.14-.38,1.81-.38s1.26.16,1.74.49c.49.33.73.68.73,1.05s-.27,1.02-.8,1.95c-.53.93-1.22,2.75-2.06,5.44-.84,2.7-1.26,4.86-1.26,6.49,0,2.19.81,3.28,2.44,3.28,1.95,0,4.3-1.58,7.05-4.75.37-.46.83-.7,1.36-.7s1.02.2,1.47.59c.44.4.66.86.66,1.4s-.26,1.13-.77,1.78c-3.44,4.05-7.03,6.07-10.75,6.07-2.09,0-3.77-.64-5.02-1.92-1.26-1.28-1.88-2.94-1.88-4.99ZM237.95,341.86c-2.51,0-3.77-1.09-3.77-3.28,0-1.16.41-2.08,1.22-2.76.81-.67,1.85-1.01,3.11-1.01,2.33,0,3.49,1.05,3.49,3.14,0,1.21-.37,2.16-1.12,2.86-.74.7-1.72,1.05-2.93,1.05Z"/>
          <path class="cls-3" d="M261.46,364.68c1.77-.37,3.91-1.74,6.42-4.12.19-.19.45-.28.8-.28s.72.31,1.12.94c.39.63.59,1.12.59,1.47s-.05.62-.14.8c-1.49,1.91-3.35,3.37-5.58,4.4-2.23,1.02-4.09,1.54-5.58,1.54-2.7,0-4.05-1.47-4.05-4.4,0-1.54.46-3.74,1.4-6.63.93-2.88,1.4-4.43,1.4-4.64s-.05-.31-.14-.31h-.07c-.79.33-2.45,2.18-4.99,5.55-2.54,3.37-4.08,5.76-4.64,7.15-.56,1.4-1.04,2.29-1.43,2.69-.4.4-1.04.59-1.92.59-1.72-.05-2.58-1.81-2.58-5.3.09-4.93,1.12-10.02,3.07-15.28.6-1.67,1.63-2.51,3.07-2.51.56,0,1.02.19,1.4.56.37.37.56.76.56,1.15s-.02.66-.07.8c-1.07,3.07-1.93,6.51-2.58,10.33,2.42-4.19,4.79-7.39,7.12-9.6,2.33-2.21,4.4-3.31,6.21-3.31.93,0,1.74.29,2.44.87.7.58,1.05,1.2,1.05,1.85,0,1.02-.59,3.34-1.78,6.94-1.19,3.61-1.83,5.73-1.92,6.38-.09.65-.14,1.22-.14,1.71s.15.72.45.7c.3-.02.48-.03.52-.03Z"/>
          <path class="cls-3" d="M289.24,350.44l-3.91,16.54c4.79-3.91,8.14-5.86,10.05-5.86.42,0,.87.22,1.36.66.49.44.73,1.04.73,1.78s-.51,1.37-1.54,1.88c-5.4,2.93-9.14,5.09-11.24,6.49-1.67,7.58-3.54,12.58-5.58,15-2.61,3.02-5.49,4.54-8.65,4.54-3.86,0-5.79-1.58-5.79-4.75,0-.84.14-1.56.42-2.16.14-.37.27-.71.38-1.01.12-.3.3-.64.56-1.01.25-.37.45-.66.59-.87s.37-.52.7-.94c.33-.42.55-.7.66-.84.12-.14.36-.41.73-.8.37-.4.9-.99,1.57-1.78.67-.79,2.06-1.95,4.15-3.49.74-.6,1.73-1.36,2.97-2.27,1.23-.91,2.15-1.59,2.76-2.06l.7-3.35c-.61.88-1.54,1.64-2.79,2.27-1.26.63-2.47.94-3.63.94-1.95,0-3.52-.64-4.71-1.92-1.19-1.28-1.78-2.87-1.78-4.78,0-4.28,1.49-8.04,4.47-11.27,2.98-3.23,6.35-4.85,10.12-4.85h.28c.79,0,1.4.17,1.81.52.42.35.63.73.63,1.15.42-.19.95-.28,1.6-.28s1.22.2,1.71.59c.49.4.73.9.73,1.5l-.07.42ZM270.12,387.71c2.37,0,4.44-1.57,6.21-4.71,1.77-3.14,2.95-6.2,3.56-9.18-.47.42-1.2,1.05-2.2,1.88-1,.84-1.76,1.48-2.27,1.92-.51.44-1.18,1.02-1.99,1.74-.81.72-1.43,1.33-1.85,1.81-.42.49-.95,1.17-1.6,2.06-.65.88-.98,1.88-.98,3,0,.98.37,1.47,1.12,1.47ZM275.98,364.82c2.79,0,4.82-2.26,6.07-6.77l1.88-7.12c-2.79,0-5.22,1.19-7.29,3.56-2.07,2.37-3.11,4.69-3.11,6.94s.81,3.38,2.44,3.38Z"/>
          <path class="cls-3" d="M316.73,365.79c0,.88.14,1.5.42,1.85.28.35.86.52,1.74.52,6.33,0,11.75-2.49,16.26-7.47,4.51-4.98,6.77-10.65,6.77-17.03,0-4.56-1.54-8.36-4.61-11.41-3.07-3.05-7.2-4.57-12.39-4.57s-9.15,1.4-11.9,4.19c-.28.28-.72.87-1.33,1.78-.61.91-1.19,1.66-1.74,2.27-.56.61-1.09.91-1.61.91s-.92-.24-1.22-.73c-.3-.49-.45-1.12-.45-1.88s.28-1.79.84-3.07c.56-1.28,1.02-2.13,1.4-2.55,3.63-4.23,8.72-6.35,15.28-6.35,7.54,0,13.35,1.87,17.45,5.62,4.09,3.75,6.14,8.78,6.14,15.11,0,4.56-.81,8.75-2.44,12.56-1.63,3.82-3.78,6.94-6.45,9.39-2.68,2.44-5.68,4.34-9,5.69-3.33,1.35-6.52,2.02-9.59,2.02s-6.05-.65-8.93-1.95c-.65-.28-.95-.84-.91-1.67.09-6.33.95-13.12,2.58-20.38,1.63-7.26,3.63-12.58,6-15.98,1.16-.79,2.26-1.19,3.28-1.19s1.93.65,2.72,1.95c-2.05,2.65-3.94,7.53-5.69,14.62-1.74,7.09-2.62,13.01-2.62,17.76Z"/>
          <path class="cls-3" d="M355.81,360.56c.84-2.65,2.41-5.68,4.71-9.07,2.3-3.4,4.18-5.09,5.62-5.09,2.05,0,3.07.79,3.07,2.37,0,1.02-.24,2.2-.73,3.52-.49,1.33-.73,2.13-.73,2.41,0,.7.5,1.05,1.5,1.05s2.64-.67,4.92-2.02c.09-.05.28-.07.56-.07s.64.26,1.08.77c.44.51.66.97.66,1.36s-.09.69-.28.87c-2.79,2.51-5.51,3.77-8.16,3.77-3.16,0-4.75-1.35-4.75-4.05,0-.09.37-1.6,1.12-4.54-.05,0-.42.56-1.12,1.67-2.19,3.63-4.33,8.3-6.42,14.03-.61,1.21-1.6,1.81-3,1.81-1.91,0-2.86-1.54-2.86-4.61v-.56c0-5.02.72-9.93,2.16-14.72.7-2.09,1.81-3.14,3.35-3.14.6,0,1.09.19,1.47.56.37.37.56.84.56,1.4l-2.72,12.28Z"/>
          <path class="cls-3" d="M372.9,360.35c0-3.44,1.13-6.64,3.38-9.59,2.26-2.95,4.99-4.43,8.2-4.43,1.91,0,3.49.54,4.75,1.6,1.26,1.07,1.88,2.51,1.88,4.33,0,2.56-1.05,4.63-3.14,6.21-2.09,1.58-5.26,2.82-9.49,3.7.65,2,2.33,3,5.02,3,3.72,0,7.23-1.58,10.54-4.75.19-.19.48-.28.87-.28s.77.16,1.12.49c.35.33.52.72.52,1.19s-.16.93-.49,1.4c-1.16,1.63-3,3.13-5.51,4.5-2.51,1.37-5.13,2.06-7.85,2.06s-5.04-.8-6.94-2.41c-1.91-1.6-2.86-3.94-2.86-7.01ZM384.59,350.86c-1.51,0-2.97.87-4.36,2.62s-2.09,3.62-2.09,5.62c5.82-2,8.72-4.09,8.72-6.28,0-1.3-.76-1.95-2.27-1.95Z"/>
          <path class="cls-3" d="M393.56,362.1c0-4.19,1.5-7.92,4.5-11.2,3-3.28,6.2-4.92,9.59-4.92,1.91,0,2.86.49,2.86,1.47v.42h1.6c1.3,0,1.95.61,1.95,1.81v.42l-1.95,12c-.05.19-.07.44-.07.77,0,1.12.39,1.67,1.19,1.67,1.77,0,3.86-1.56,6.28-4.68.33-.42.65-.63.98-.63.46,0,.86.36,1.19,1.08.33.72.49,1.35.49,1.88s-.05.94-.14,1.22c-1.07,1.49-2.47,2.85-4.19,4.08-1.72,1.23-3.36,1.85-4.92,1.85s-2.77-.41-3.63-1.22c-.86-.81-1.38-1.92-1.57-3.31v.14c-.79,1.49-1.84,2.65-3.14,3.49-1.35.84-2.96,1.26-4.81,1.26s-3.36-.71-4.5-2.13c-1.14-1.42-1.71-3.24-1.71-5.48ZM401.45,364.82c1.26,0,2.45-.7,3.59-2.09,1.14-1.4,1.92-2.93,2.34-4.61l1.88-7.82c-2.7,0-5.12,1.28-7.26,3.84-2.14,2.56-3.21,4.98-3.21,7.26s.88,3.42,2.65,3.42Z"/>
          <path class="cls-3" d="M431.73,365.72c0-2.33.86-6.79,2.58-13.4-2.75,3.95-5.28,8.28-7.61,12.98-.61,1.26-1.18,2.2-1.71,2.83-.54.63-.94.99-1.22,1.08-.28.09-.68.14-1.19.14-1.81,0-2.72-1.47-2.72-4.4,0-5.4.91-10.82,2.72-16.26.51-1.58,1.4-2.37,2.65-2.37.46,0,.88.14,1.26.42.37.28.56.61.56.98s-.02.63-.07.77c-1.16,3.77-2.02,8.07-2.58,12.91,2.05-5.12,4.09-8.89,6.14-11.31,2.05-2.42,3.81-3.63,5.3-3.63.65,0,1.23.19,1.74.56.51.37.77.88.77,1.54,0,2.14-.74,6.14-2.23,12,3.58-9.44,7.33-14.17,11.24-14.17,2.09,0,3.14,1.05,3.14,3.14,0,1.35-.57,3.64-1.71,6.87-1.14,3.23-1.71,5.71-1.71,7.43,0,1.21.56,1.81,1.67,1.81.32,0,.56-.02.7-.07,1.21-.28,3.35-1.91,6.42-4.88.19-.19.46-.28.84-.28s.8.22,1.29.66c.49.44.73.77.73.98s-.05.41-.14.59c-1.49,2.05-3.31,3.7-5.48,4.95-2.16,1.26-4.04,1.88-5.62,1.88h-.14c-1.49,0-2.65-.45-3.49-1.36-.84-.91-1.26-2.06-1.26-3.45v-.63c.23-2.14,1.28-6.16,3.14-12.07-2.05,1.72-4.95,6.75-8.72,15.07-.74,1.54-1.6,2.3-2.58,2.3-1.81,0-2.72-1.21-2.72-3.63Z"/>
          <path class="cls-3" d="M466.83,369.7c-2.89,0-5.41-.57-7.57-1.71-2.16-1.14-3.66-2.57-4.5-4.29,2.05-3.53,4.77-8.79,8.16-15.77.74-1.44,1.81-2.16,3.21-2.16.7,0,1.29.22,1.78.66.49.44.73,1.01.73,1.71,0,.65-.14,1.21-.42,1.67-.28.47-.42.93-.42,1.4s.51,1.33,1.54,2.58c1.02,1.26,2.03,2.65,3.04,4.19,1,1.54,1.5,2.87,1.5,4.01s-.26,2.13-.77,2.97c2.14-.7,4.42-2.56,6.84-5.58.28-.28.62-.42,1.01-.42s.84.31,1.33.94c.49.63.73,1.16.73,1.6s-.09.85-.28,1.22c-1.35,2.09-3.37,3.78-6.07,5.06-2.7,1.28-5.98,1.92-9.84,1.92ZM465.09,365.72h.28c2.33,0,3.49-1.05,3.49-3.14s-1.12-4.79-3.35-8.1l-4.61,9.35c1.63,1.26,3.02,1.88,4.19,1.88Z"/>
          <path class="cls-3" d="M493.21,362.65c0-2.05.37-4.45,1.12-7.22.74-2.77,1.49-4.83,2.23-6.18.74-1.35,1.38-2.15,1.92-2.41.53-.26,1.14-.38,1.81-.38s1.26.16,1.74.49c.49.33.73.68.73,1.05s-.27,1.02-.8,1.95c-.53.93-1.22,2.75-2.06,5.44-.84,2.7-1.26,4.86-1.26,6.49,0,2.19.81,3.28,2.44,3.28,1.95,0,4.3-1.58,7.05-4.75.37-.46.83-.7,1.36-.7s1.02.2,1.47.59c.44.4.66.86.66,1.4s-.26,1.13-.77,1.78c-3.44,4.05-7.03,6.07-10.75,6.07-2.09,0-3.77-.64-5.02-1.92-1.26-1.28-1.88-2.94-1.88-4.99ZM503.47,341.86c-2.51,0-3.77-1.09-3.77-3.28,0-1.16.41-2.08,1.22-2.76.81-.67,1.85-1.01,3.11-1.01,2.33,0,3.49,1.05,3.49,3.14,0,1.21-.37,2.16-1.12,2.86-.74.7-1.72,1.05-2.93,1.05Z"/>
          <path class="cls-3" d="M526.98,364.68c1.77-.37,3.91-1.74,6.42-4.12.19-.19.45-.28.8-.28s.72.31,1.12.94c.39.63.59,1.12.59,1.47s-.05.62-.14.8c-1.49,1.91-3.35,3.37-5.58,4.4-2.23,1.02-4.09,1.54-5.58,1.54-2.7,0-4.05-1.47-4.05-4.4,0-1.54.46-3.74,1.4-6.63.93-2.88,1.4-4.43,1.4-4.64s-.05-.31-.14-.31h-.07c-.79.33-2.45,2.18-4.99,5.55-2.54,3.37-4.08,5.76-4.64,7.15-.56,1.4-1.04,2.29-1.43,2.69-.4.4-1.04.59-1.92.59-1.72-.05-2.58-1.81-2.58-5.3.09-4.93,1.12-10.02,3.07-15.28.6-1.67,1.63-2.51,3.07-2.51.56,0,1.02.19,1.4.56.37.37.56.76.56,1.15s-.02.66-.07.8c-1.07,3.07-1.93,6.51-2.58,10.33,2.42-4.19,4.79-7.39,7.12-9.6,2.33-2.21,4.4-3.31,6.21-3.31.93,0,1.74.29,2.44.87.7.58,1.05,1.2,1.05,1.85,0,1.02-.59,3.34-1.78,6.94-1.19,3.61-1.83,5.73-1.92,6.38-.09.65-.14,1.22-.14,1.71s.15.72.45.7c.3-.02.48-.03.52-.03Z"/>
          <path class="cls-3" d="M535.01,358.05v-.77c-.61.42-1.13.63-1.57.63s-.81-.2-1.12-.59c-.3-.39-.45-.88-.45-1.47s.28-1.02.84-1.33c.56-.3,1.44-.73,2.65-1.29.79-6.19,2.42-12.07,4.88-17.66,1.26-2.84,2.81-5.17,4.68-7.01,1.86-1.84,3.67-2.76,5.44-2.76s3.04.44,3.8,1.33c.77.88,1.15,1.95,1.15,3.21v.49c-.28,3.44-1.57,6.86-3.87,10.26-2.3,3.4-5.01,6.37-8.13,8.93,3.86-1.3,6.33-1.95,7.4-1.95.37,0,.73.2,1.08.59.35.4.52.92.52,1.57s-.4,1.05-1.19,1.19c-2.37.37-6,1.56-10.89,3.56-.09,1.49-.14,2.65-.14,3.49,0,4.42.95,6.63,2.86,6.63,2.23,0,4.81-1.63,7.75-4.88.32-.32.73-.49,1.22-.49s.95.2,1.4.59c.44.4.66.88.66,1.47s-.28,1.18-.84,1.78c-3.58,4-7.19,6-10.82,6-2.7,0-4.59-1.01-5.69-3.04-1.09-2.02-1.64-4.85-1.64-8.48ZM549.94,331.6c-1.3,0-2.61.98-3.91,2.93-2.42,3.58-4.07,8.14-4.95,13.68.09-.09.66-.72,1.71-1.88,1.05-1.16,1.7-1.88,1.95-2.16.25-.28.81-.94,1.67-1.99.86-1.05,1.43-1.85,1.71-2.41.28-.56.66-1.3,1.15-2.23.49-.93.81-1.81.98-2.65.16-.84.24-1.58.24-2.23s-.19-1-.56-1.05Z"/>
          <path class="cls-3" d="M559.29,369.7c-2.33,0-4.23-.84-5.72-2.51-1.49-1.67-2.23-3.77-2.23-6.28,0-3.81,1.24-7.2,3.73-10.15,2.49-2.95,5.41-4.43,8.76-4.43,1.95,0,3.59.7,4.92,2.09,1.33,1.4,1.99,3.16,1.99,5.3,0,.47-.09,1.21-.28,2.23,3.02-.56,6.02-2.51,9-5.86.19-.19.43-.28.73-.28s.62.22.94.66c.33.44.49.88.49,1.33s-.09.76-.28.94c-3.12,3.86-6.98,6.42-11.58,7.68-1.54,6.19-5.02,9.28-10.47,9.28ZM560.34,365.24c1.21,0,2.34-.67,3.38-2.02,1.05-1.35,1.64-2.7,1.78-4.05-1.72-.74-2.58-1.7-2.58-2.86s.6-2.33,1.81-3.49c-.05-.6-.2-1.05-.45-1.33-.26-.28-.62-.42-1.08-.42-1.77,0-3.28,1.04-4.54,3.11-1.26,2.07-1.88,4.22-1.88,6.45,0,3.07,1.19,4.61,3.56,4.61Z"/>
          <path class="cls-3" d="M597.88,323.02c2.23,0,4.33.42,6.28,1.26,4.61,1.86,6.91,5.28,6.91,10.26,0,2.61-.56,5.65-1.67,9.14l-2.16,6.77c.79.05,2.64.07,5.55.07s6.04-.28,9.39-.84l2.23-8.37c1.44-5.54,3.62-9.65,6.52-12.35,2.91-2.7,5.79-4.05,8.65-4.05s5.17.8,6.94,2.41c1.77,1.6,2.65,3.64,2.65,6.11v.63c-.28,3.91-2.27,7.69-5.97,11.34-3.7,3.65-9.15,6.34-16.36,8.06l-1.67,6.84c-.7,2.98-1.05,5.4-1.05,7.26,0,3.95,1.49,5.93,4.47,5.93,1.49,0,3.23-.4,5.23-1.19.74-.33,1.7-.73,2.86-1.22,1.16-.49,1.87-.79,2.13-.91.25-.12.58-.17.98-.17s.81.29,1.26.87c.44.58.66,1.22.66,1.92s-.26,1.21-.77,1.54c-4.56,3.16-8.98,4.75-13.26,4.75-2.88,0-5.2-.86-6.94-2.58-1.74-1.72-2.62-4.37-2.62-7.96,0-2.33.35-4.79,1.05-7.4l1.74-6.63c-3.58.47-6.76.7-9.53.7s-4.66-.02-5.69-.07l-5.51,17.17c-.51,1.54-1.01,2.65-1.5,3.35-.49.7-1.25,1.05-2.27,1.05-2.23,0-3.35-.95-3.35-2.86,0-.88.23-2,.7-3.35l5.72-15.84c-.84-.09-2.14-.23-3.91-.42-1.26-.14-1.88-.74-1.88-1.81,0-.7.27-1.34.8-1.92.53-.58,1.17-.87,1.92-.87h.28c1.12.14,2.58.3,4.4.49l1.81-4.95c1.67-4.61,2.51-8.2,2.51-10.78s-1-4.43-3-5.55c-1.4-.74-2.93-1.12-4.61-1.12-2.75,0-5.26.94-7.54,2.83-2.28,1.88-3.77,4.66-4.47,8.34-.37,2.09-1.3,3.14-2.79,3.14-.65,0-1.21-.24-1.67-.73-.46-.49-.7-1.13-.7-1.92.65-5.3,2.65-9.35,6-12.14,3.35-2.79,7.09-4.19,11.23-4.19ZM639.96,329.86c-1.95,0-3.94,1.06-5.97,3.18-2.02,2.12-3.5,5.15-4.43,9.11l-1.54,6.21c4.88-1.44,8.7-3.52,11.44-6.25,2.74-2.72,4.12-5.52,4.12-8.41,0-1.21-.34-2.15-1.01-2.83-.68-.67-1.55-1.01-2.62-1.01Z"/>
          <path class="cls-3" d="M650.99,369.7c-2.33,0-4.23-.84-5.72-2.51-1.49-1.67-2.23-3.77-2.23-6.28,0-3.81,1.24-7.2,3.73-10.15,2.49-2.95,5.41-4.43,8.76-4.43,1.95,0,3.59.7,4.92,2.09,1.33,1.4,1.99,3.16,1.99,5.3,0,.47-.09,1.21-.28,2.23,3.02-.56,6.02-2.51,9-5.86.19-.19.43-.28.73-.28s.62.22.94.66c.33.44.49.88.49,1.33s-.09.76-.28.94c-3.12,3.86-6.98,6.42-11.58,7.68-1.54,6.19-5.02,9.28-10.47,9.28ZM652.03,365.24c1.21,0,2.34-.67,3.38-2.02,1.05-1.35,1.64-2.7,1.78-4.05-1.72-.74-2.58-1.7-2.58-2.86s.6-2.33,1.81-3.49c-.05-.6-.2-1.05-.45-1.33-.26-.28-.62-.42-1.08-.42-1.77,0-3.28,1.04-4.54,3.11-1.26,2.07-1.88,4.22-1.88,6.45,0,3.07,1.19,4.61,3.56,4.61Z"/>
          <path class="cls-3" d="M679.25,365.72c0-2.33.86-6.79,2.58-13.4-2.75,3.95-5.28,8.28-7.61,12.98-.61,1.26-1.18,2.2-1.71,2.83-.54.63-.94.99-1.22,1.08-.28.09-.68.14-1.19.14-1.81,0-2.72-1.47-2.72-4.4,0-5.4.91-10.82,2.72-16.26.51-1.58,1.4-2.37,2.65-2.37.46,0,.88.14,1.26.42.37.28.56.61.56.98s-.02.63-.07.77c-1.16,3.77-2.02,8.07-2.58,12.91,2.05-5.12,4.09-8.89,6.14-11.31,2.05-2.42,3.81-3.63,5.3-3.63.65,0,1.23.19,1.74.56.51.37.77.88.77,1.54,0,2.14-.74,6.14-2.23,12,3.58-9.44,7.33-14.17,11.24-14.17,2.09,0,3.14,1.05,3.14,3.14,0,1.35-.57,3.64-1.71,6.87-1.14,3.23-1.71,5.71-1.71,7.43,0,1.21.56,1.81,1.67,1.81.32,0,.56-.02.7-.07,1.21-.28,3.35-1.91,6.42-4.88.19-.19.46-.28.84-.28s.8.22,1.29.66c.49.44.73.77.73.98s-.05.41-.14.59c-1.49,2.05-3.31,3.7-5.48,4.95-2.16,1.26-4.04,1.88-5.62,1.88h-.14c-1.49,0-2.65-.45-3.49-1.36-.84-.91-1.26-2.06-1.26-3.45v-.63c.23-2.14,1.28-6.16,3.14-12.07-2.05,1.72-4.95,6.75-8.72,15.07-.74,1.54-1.6,2.3-2.58,2.3-1.81,0-2.72-1.21-2.72-3.63Z"/>
          <path class="cls-3" d="M703.6,360.35c0-3.44,1.13-6.64,3.38-9.59,2.26-2.95,4.99-4.43,8.2-4.43,1.91,0,3.49.54,4.75,1.6,1.26,1.07,1.88,2.51,1.88,4.33,0,2.56-1.05,4.63-3.14,6.21-2.09,1.58-5.26,2.82-9.49,3.7.65,2,2.33,3,5.02,3,3.72,0,7.23-1.58,10.54-4.75.19-.19.48-.28.87-.28s.77.16,1.12.49c.35.33.52.72.52,1.19s-.16.93-.49,1.4c-1.16,1.63-3,3.13-5.51,4.5-2.51,1.37-5.13,2.06-7.85,2.06s-5.04-.8-6.94-2.41c-1.91-1.6-2.86-3.94-2.86-7.01ZM715.29,350.86c-1.51,0-2.97.87-4.36,2.62-1.4,1.74-2.09,3.62-2.09,5.62,5.82-2,8.72-4.09,8.72-6.28,0-1.3-.76-1.95-2.27-1.95Z"/>
          <path class="cls-3" d="M735.07,369.7c-2.89,0-5.41-.57-7.57-1.71-2.16-1.14-3.66-2.57-4.5-4.29,2.05-3.53,4.77-8.79,8.16-15.77.74-1.44,1.81-2.16,3.21-2.16.7,0,1.29.22,1.78.66.49.44.73,1.01.73,1.71,0,.65-.14,1.21-.42,1.67-.28.47-.42.93-.42,1.4s.51,1.33,1.54,2.58c1.02,1.26,2.03,2.65,3.04,4.19,1,1.54,1.5,2.87,1.5,4.01s-.26,2.13-.77,2.97c2.14-.7,4.42-2.56,6.84-5.58.28-.28.62-.42,1.01-.42s.84.31,1.33.94c.49.63.73,1.16.73,1.6s-.09.85-.28,1.22c-1.35,2.09-3.37,3.78-6.07,5.06-2.7,1.28-5.98,1.92-9.84,1.92ZM733.33,365.72h.28c2.33,0,3.49-1.05,3.49-3.14s-1.12-4.79-3.35-8.1l-4.61,9.35c1.63,1.26,3.02,1.88,4.19,1.88Z"/>
        </g>
      </g>
    </g>
  </g>
</svg>